<?xml version="1.0" encoding="UTF-8"?>
<svg id="Layer_2" data-name="Layer 2" xmlns="http://www.w3.org/2000/svg" viewBox="0 0 60.05 55.06">
  <g id="Layer_1-2" data-name="Layer 1">
    <path d="m40.2,55.06c-5.34,0-10.7-.94-11.28-1.05-.02,0-.04,0-.06,0-.47-.08-1.26-.16-2.25-.26-2.75-.27-7.35-.71-12.8-2.08C6.46,49.81,1.52,42.57.05,36.63c-.15-.62.1-1.28.63-1.63,1.72-1.15,4.45-2.48,6.81-2.76-.98-3.48-2.59-10.33-1.7-14.83,1.27-6.42,7.42-12.79,12.39-15.02,8.48-3.8,18.08-2.5,24.23-.02,6.24,2.52,11.76,7.86,15.14,14.66,2.43,4.89,3.15,16.88,1.9,21.93-1.33,5.34-5.08,12.47-11.28,14.97-2.12.86-5.04,1.14-7.96,1.14Zm-10.6-4.02c4.95.89,13.54,1.62,17.42.06,5.49-2.21,8.53-9.13,9.46-12.88,1.1-4.43.41-15.64-1.67-19.84-3.05-6.14-7.98-10.95-13.54-13.19-5.57-2.24-14.23-3.43-21.84-.02-4.2,1.88-9.61,7.61-10.65,12.83-.79,3.97.92,11.42,2.26,15.47.19.59.02,1.23-.45,1.63-.47.4-1.13.49-1.68.21-.56-.29-3.03.18-5.59,1.64,1.26,3.86,4.81,10.13,11.26,11.76,3.19.8,6.03,1.27,8.4,1.57-1.55-1.36-3.1-3.06-4.32-5.12-3.92-6.58-2.39-18.99,6.07-26.3,4.38-3.78,11.08-4.64,17.07-2.19,6.2,2.53,10.23,8.08,10.79,14.82.67,8.12-4.41,13.18-9.38,15.21-5.78,2.35-12.03,1.32-15.19-2.51-2.81-3.39-3.27-8-1.23-12.32,2.13-4.54,6.34-7.58,10.47-7.58,3.59,0,5.49,1.84,6.45,3.39,1.91,3.08,1.62,7.36.68,9.25-1.41,2.84-5.39,4.33-7.12,4.33-.08,0-.17,0-.25-.02-1.87-.31-4.04-1.78-4.57-3.97-.34-1.4-.14-3.52,2.76-5.71.67-.51,1.63-.38,2.14.3.51.67.37,1.63-.3,2.14-.71.54-1.87,1.58-1.63,2.55.19.78,1.17,1.47,1.98,1.66.88-.08,3.49-1.03,4.28-2.63.51-1.02.78-4.17-.54-6.29-.81-1.31-2.07-1.95-3.85-1.95-2.93,0-6.1,2.4-7.71,5.83-.73,1.55-2.11,5.53.82,9.08,2.29,2.77,7.21,3.45,11.69,1.63,5.15-2.1,7.95-6.63,7.5-12.13-.47-5.67-3.71-10.13-8.91-12.25-4.93-2.02-10.4-1.36-13.92,1.68-5.19,4.48-9.77,15.18-5.45,22.43,2.54,4.27,6.75,6.75,8.34,7.43Z"/>
  </g>
</svg>